<svg id="Capa_1" enable-background="new 0 0 512 512" height="512" viewBox="0 0 512 512" width="512" xmlns="http://www.w3.org/2000/svg"><g><g><g><path d="m237.087 240.251c-2.292 0-4.59-.525-6.707-1.584l-56.833-28.416h-98.421c-41.425 0-75.126-33.701-75.126-75.125v-60c0-41.425 33.701-75.126 75.126-75.126h101.836c41.425 0 75.126 33.701 75.126 75.126v150.125c0 5.198-2.691 10.026-7.114 12.76-2.409 1.488-5.144 2.24-7.887 2.24z" fill="#3de5aa"/><path d="m176.962 0h-50.918v210.251h47.503l56.833 28.416c2.117 1.059 4.415 1.584 6.707 1.584 2.743 0 5.479-.752 7.887-2.24 4.423-2.733 7.114-7.562 7.114-12.76v-150.125c0-41.425-33.701-75.126-75.126-75.126z" fill="#30b3b2"/></g><g><g><path d="m177.088 150.251h-102.088c-8.284 0-15-6.716-15-15s6.716-15 15-15h102.088c8.284 0 15 6.716 15 15s-6.716 15-15 15z" fill="#30b3b2"/><path d="m177.088 120.251h-51.044v30h51.044c8.284 0 15-6.716 15-15s-6.716-15-15-15z" fill="#218080"/></g><g><path d="m177.088 90.251h-102.088c-8.284 0-15-6.716-15-15s6.716-15 15-15h102.088c8.284 0 15 6.716 15 15s-6.716 15-15 15z" fill="#30b3b2"/><path d="m177.088 60.251h-51.044v30h51.044c8.284 0 15-6.716 15-15s-6.716-15-15-15z" fill="#218080"/></g></g></g><g><g><path d="m296.913 286.251c-2.743 0-5.478-.751-7.887-2.24-4.423-2.733-7.114-7.561-7.114-12.76v-196.125c0-41.425 33.701-75.126 75.126-75.126h79.836c41.425 0 75.126 33.701 75.126 75.126v106c0 41.424-33.701 75.125-75.126 75.125h-76.421l-56.833 28.416c-2.116 1.059-4.415 1.584-6.707 1.584z" fill="#56e1fd"/><path d="m436.874 0h-35.477v256.251h35.477c41.425 0 75.126-33.701 75.126-75.125v-106c0-41.425-33.701-75.126-75.126-75.126z" fill="#3dbcfc"/></g><g><g><path d="m401.399 196.69c-6.284 0-11.983-4.049-14.119-9.942-2.137-5.897-.22-12.675 4.609-16.647 4.844-3.984 11.834-4.472 17.211-1.27 5.387 3.208 8.216 9.653 6.999 15.79-1.373 6.927-7.636 12.069-14.7 12.069z" fill="#3dbcfc"/><path d="m409.101 168.83c-2.363-1.407-5.037-2.101-7.704-2.099v29.958h.003c7.063 0 13.327-5.142 14.7-12.069 1.216-6.137-1.612-12.582-6.999-15.79z" fill="#399cfc"/></g><g><path d="m401.397 166.427c-8.284 0-15-6.716-15-15v-16.905c0-8.284 6.716-15 15-15 8.271 0 15-6.729 15-15 0-8.272-6.729-15-15-15-6.206 0-11.688 3.729-13.965 9.502-3.04 7.707-11.75 11.487-19.458 8.448-7.706-3.04-11.488-11.751-8.448-19.458 6.827-17.309 23.263-28.492 41.871-28.492 24.813 0 45 20.186 45 45 0 19.557-12.539 36.239-30 42.43v4.476c0 8.283-6.715 14.999-15 14.999z" fill="#3dbcfc"/><path d="m401.397 59.522-.001 30h.001c8.271 0 15 6.728 15 15 0 8.271-6.729 15-15 15h-.001v46.905h.001c8.284 0 15-6.716 15-15v-4.476c17.461-6.19 30-22.873 30-42.43 0-24.813-20.186-44.999-45-44.999z" fill="#399cfc"/></g></g></g><g><g><path d="m197.087 512c-2.292 0-4.59-.525-6.707-1.584l-56.833-28.416h-58.421c-41.425 0-75.126-33.701-75.126-75.126v-91c0-41.424 33.701-75.125 75.126-75.125h61.836c41.425 0 75.126 33.701 75.126 75.125v181.126c0 5.198-2.691 10.026-7.114 12.76-2.409 1.488-5.144 2.24-7.887 2.24z" fill="#fff5f5"/><path d="m136.962 240.749h-30.915v241.251h27.5l56.833 28.416c2.117 1.059 4.415 1.584 6.707 1.584 2.743 0 5.479-.752 7.887-2.24 4.423-2.733 7.114-7.562 7.114-12.76v-181.126c0-41.424-33.701-75.125-75.126-75.125z" fill="#ece6f2"/></g><g><g><path d="m106.044 392.736c-8.284 0-15-6.716-15-15v-61.736c0-8.284 6.716-15 15-15s15 6.716 15 15v61.736c0 8.285-6.716 15-15 15z" fill="#ece6f2"/><path d="m106.047 301v91.736c8.283-.002 14.997-6.717 14.997-15v-61.736c0-8.283-6.714-14.998-14.997-15z" fill="#dfd5e8"/></g><g><path d="m106.05 422.74c-6.54 0-12.447-4.407-14.35-10.65-1.903-6.245.582-13.203 6.02-16.82 4.948-3.292 11.483-3.335 16.475-.118 5.322 3.43 7.942 10.095 6.39 16.232-1.665 6.585-7.733 11.356-14.535 11.356z" fill="#ece6f2"/><path d="m114.195 395.152c-2.465-1.589-5.307-2.379-8.148-2.379v29.967h.003c6.802 0 12.87-4.772 14.535-11.357 1.552-6.137-1.068-12.801-6.39-16.231z" fill="#dfd5e8"/></g></g></g><g><g><path d="m256.913 489.251c-2.743 0-5.478-.751-7.887-2.24-4.423-2.733-7.114-7.562-7.114-12.76v-90.125c0-41.425 33.701-75.126 75.126-75.126h119.836c41.425 0 75.126 33.701 75.126 75.126 0 41.424-33.701 75.125-75.126 75.125h-116.421l-56.833 28.416c-2.117 1.059-4.415 1.584-6.707 1.584z" fill="#4e638b"/><path d="m436.874 309h-59.918v150.251h59.918c41.425 0 75.126-33.701 75.126-75.125 0-41.425-33.701-75.126-75.126-75.126z" fill="#293e65"/></g><g><path d="m437 399.251h-120.088c-8.284 0-15-6.716-15-15s6.716-15 15-15h120.088c8.284 0 15 6.716 15 15s-6.716 15-15 15z" fill="#293e65"/><path d="m437 369.251h-60.044v30h60.044c8.284 0 15-6.716 15-15s-6.716-15-15-15z" fill="#0f134c"/></g></g></g></svg>